<mxfile host="app.diagrams.net" agent="Mozilla/5.0 (Windows NT 10.0; Win64; x64) AppleWebKit/537.36 (KHTML, like Gecko) Chrome/137.0.0.0 Safari/537.36 Edg/137.0.0.0" version="27.1.6">
  <diagram name="Halaman-1" id="yNGekSyyPDiMannhuQyl">
    <mxGraphModel dx="1152" dy="693" grid="1" gridSize="10" guides="1" tooltips="1" connect="1" arrows="1" fold="1" page="1" pageScale="1" pageWidth="827" pageHeight="1169" math="0" shadow="0">
      <root>
        <mxCell id="0" />
        <mxCell id="1" parent="0" />
        <mxCell id="fNAULKrlYeRAc4VL2Ecp-11" value="User/Pengunjung" style="text;html=1;align=center;verticalAlign=middle;whiteSpace=wrap;rounded=0;" vertex="1" parent="1">
          <mxGeometry x="90" y="10" width="60" height="40" as="geometry" />
        </mxCell>
        <mxCell id="fNAULKrlYeRAc4VL2Ecp-12" value="Machine E-Learning" style="text;html=1;align=center;verticalAlign=middle;whiteSpace=wrap;rounded=0;" vertex="1" parent="1">
          <mxGeometry x="495" y="10" width="150" height="40" as="geometry" />
        </mxCell>
        <mxCell id="fNAULKrlYeRAc4VL2Ecp-13" value="" style="ellipse;whiteSpace=wrap;html=1;aspect=fixed;fillColor=light-dark(#FFFFFF,#FFFFFF);" vertex="1" parent="1">
          <mxGeometry x="80" y="80" width="80" height="80" as="geometry" />
        </mxCell>
        <mxCell id="fNAULKrlYeRAc4VL2Ecp-16" value="" style="endArrow=classic;html=1;rounded=0;exitX=0.5;exitY=1;exitDx=0;exitDy=0;" edge="1" parent="1" source="fNAULKrlYeRAc4VL2Ecp-13" target="fNAULKrlYeRAc4VL2Ecp-15">
          <mxGeometry width="50" height="50" relative="1" as="geometry">
            <mxPoint x="120" y="160" as="sourcePoint" />
            <mxPoint x="120" y="230" as="targetPoint" />
          </mxGeometry>
        </mxCell>
        <mxCell id="fNAULKrlYeRAc4VL2Ecp-15" value="Masuk ke menu login" style="rounded=1;whiteSpace=wrap;html=1;" vertex="1" parent="1">
          <mxGeometry x="60" y="210" width="120" height="60" as="geometry" />
        </mxCell>
        <mxCell id="fNAULKrlYeRAc4VL2Ecp-19" value="" style="endArrow=classic;html=1;rounded=0;entryX=0;entryY=0.5;entryDx=0;entryDy=0;" edge="1" parent="1" target="fNAULKrlYeRAc4VL2Ecp-21">
          <mxGeometry width="50" height="50" relative="1" as="geometry">
            <mxPoint x="180" y="240" as="sourcePoint" />
            <mxPoint x="420" y="240" as="targetPoint" />
          </mxGeometry>
        </mxCell>
        <mxCell id="fNAULKrlYeRAc4VL2Ecp-21" value="Sudah register?" style="rhombus;whiteSpace=wrap;html=1;" vertex="1" parent="1">
          <mxGeometry x="505" y="190" width="100" height="100" as="geometry" />
        </mxCell>
        <mxCell id="fNAULKrlYeRAc4VL2Ecp-22" value="" style="endArrow=none;html=1;rounded=0;entryX=0.5;entryY=1;entryDx=0;entryDy=0;startFill=1;startArrow=classic;exitX=1;exitY=0.5;exitDx=0;exitDy=0;" edge="1" parent="1" source="fNAULKrlYeRAc4VL2Ecp-26" target="fNAULKrlYeRAc4VL2Ecp-21">
          <mxGeometry width="50" height="50" relative="1" as="geometry">
            <mxPoint x="450" y="360" as="sourcePoint" />
            <mxPoint x="555" y="300" as="targetPoint" />
          </mxGeometry>
        </mxCell>
        <mxCell id="fNAULKrlYeRAc4VL2Ecp-23" value="" style="endArrow=none;html=1;rounded=0;entryX=0.5;entryY=1;entryDx=0;entryDy=0;startFill=1;startArrow=classic;exitX=0;exitY=0.5;exitDx=0;exitDy=0;" edge="1" parent="1" source="fNAULKrlYeRAc4VL2Ecp-88" target="fNAULKrlYeRAc4VL2Ecp-21">
          <mxGeometry width="50" height="50" relative="1" as="geometry">
            <mxPoint x="650" y="360" as="sourcePoint" />
            <mxPoint x="595" y="320" as="targetPoint" />
          </mxGeometry>
        </mxCell>
        <mxCell id="fNAULKrlYeRAc4VL2Ecp-24" value="Belum" style="text;html=1;align=center;verticalAlign=middle;resizable=0;points=[];autosize=1;strokeColor=none;fillColor=none;" vertex="1" parent="1">
          <mxGeometry x="450" y="300" width="60" height="30" as="geometry" />
        </mxCell>
        <mxCell id="fNAULKrlYeRAc4VL2Ecp-25" value="Sudah" style="text;html=1;align=center;verticalAlign=middle;resizable=0;points=[];autosize=1;strokeColor=none;fillColor=none;" vertex="1" parent="1">
          <mxGeometry x="590" y="300" width="60" height="30" as="geometry" />
        </mxCell>
        <mxCell id="fNAULKrlYeRAc4VL2Ecp-26" value="Masuk ke form register" style="rounded=1;whiteSpace=wrap;html=1;" vertex="1" parent="1">
          <mxGeometry x="330" y="330" width="120" height="60" as="geometry" />
        </mxCell>
        <mxCell id="fNAULKrlYeRAc4VL2Ecp-88" value="Tampilan untuk mengisi email dan password" style="rounded=1;whiteSpace=wrap;html=1;" vertex="1" parent="1">
          <mxGeometry x="650" y="330" width="120" height="60" as="geometry" />
        </mxCell>
        <mxCell id="fNAULKrlYeRAc4VL2Ecp-90" value="" style="endArrow=none;html=1;rounded=0;exitX=0.5;exitY=1;exitDx=0;exitDy=0;startFill=0;" edge="1" parent="1" source="fNAULKrlYeRAc4VL2Ecp-88">
          <mxGeometry width="50" height="50" relative="1" as="geometry">
            <mxPoint x="690" y="460" as="sourcePoint" />
            <mxPoint x="710" y="440" as="targetPoint" />
          </mxGeometry>
        </mxCell>
        <mxCell id="fNAULKrlYeRAc4VL2Ecp-91" value="" style="endArrow=classic;html=1;rounded=0;" edge="1" parent="1" target="fNAULKrlYeRAc4VL2Ecp-92">
          <mxGeometry width="50" height="50" relative="1" as="geometry">
            <mxPoint x="710" y="440" as="sourcePoint" />
            <mxPoint x="180" y="440" as="targetPoint" />
          </mxGeometry>
        </mxCell>
        <mxCell id="fNAULKrlYeRAc4VL2Ecp-92" value="Mengisi email dan password" style="rounded=1;whiteSpace=wrap;html=1;" vertex="1" parent="1">
          <mxGeometry x="60" y="410" width="120" height="60" as="geometry" />
        </mxCell>
      </root>
    </mxGraphModel>
  </diagram>
</mxfile>
